<?xml version="1.0" encoding="utf-8"?>
<!-- Generator: Adobe Illustrator 21.1.0, SVG Export Plug-In . SVG Version: 6.00 Build 0)  -->
<svg version="1.1" id="Layer_1" xmlns="http://www.w3.org/2000/svg" xmlns:xlink="http://www.w3.org/1999/xlink" x="0px" y="0px"
	 viewBox="0 0 1920 1080" style="enable-background:new 0 0 1920 1080;" xml:space="preserve">
<style type="text/css">
	.st0{fill:#FFFFFF;}
	.st1{fill:none;stroke:#FFFFFF;stroke-width:0.8309;stroke-miterlimit:10;}
	.st2{fill:url(#SVGID_1_);}
	.st3{opacity:0.2;}
	.st4{fill:none;stroke:#FFFFFF;stroke-width:0.5;stroke-miterlimit:10;}
	.st5{opacity:5.000000e-02;}
	.st6{opacity:0.5;}
</style>
<symbol  id="New_Symbol" viewBox="-9.3 -9.3 18.6 18.6">
	<circle class="st0" cx="0" cy="0" r="6.4"/>
	<circle class="st1" cx="0" cy="0" r="8.9"/>
</symbol>
<g>
	<g>
		<radialGradient id="SVGID_1_" cx="960" cy="545.5068" r="1157.5403" gradientUnits="userSpaceOnUse">
			<stop  offset="0" style="stop-color:#DC0000"/>
			<stop  offset="0.4847" style="stop-color:#790000"/>
			<stop  offset="0.8356" style="stop-color:#370000"/>
			<stop  offset="1" style="stop-color:#1E0000"/>
		</radialGradient>
		<rect class="st2" width="1920" height="1080"/>
	</g>
	<g>
		<g class="st3">
			<g>
				<polygon class="st4" points="-515.8,196.9 -405.3,37.4 -182.9,-43.9 65.6,-203.5 212.9,48.1 545.8,28.2 616.3,101.8 
					697.6,227.6 903.2,345.7 1147.1,531.3 1374.1,611.1 1513.7,769.1 1740.8,798.2 1935.6,756.8 1986.2,974.7 2072.1,1158.7 
					2167.2,1278.4 1644.1,1158.7 1522.9,1051.4 1677.9,921 903.2,658.6 1288.2,1054.4 1019.8,1111.2 895.5,953.2 737.5,1256.9 
					409.3,1195.6 281.9,1115.8 113.2,1043.7 -115.4,1013 -271.8,1212.4 -543.4,1278.4 -416,937.8 -380.8,658.6 -383.8,422.4 				"/>
				<polyline class="st4" points="-515.8,196.9 90.2,235.3 -405.3,37.4 -54,618.8 -383.8,422.4 90.2,235.3 205.2,305.8 163.8,404 
					-54,618.8 90.2,235.3 -182.9,-43.9 				"/>
				<line class="st4" x1="212.9" y1="48.1" x2="90.2" y2="235.3"/>
				<polygon class="st4" points="420,431.6 212.9,48.1 545.8,28.2 616.3,101.8 163.8,404 420,431.6 -54,618.8 372.4,721.5 
					634.8,894.9 903.2,658.6 908.9,354.1 709.9,485.3 524.3,568.1 				"/>
				<polyline class="st4" points="697.6,227.6 420,431.6 372.4,721.5 113.2,1043.7 -54,618.8 -115.4,1013 -416,937.8 -54,618.8 
					-383.6,665.8 				"/>
				<polyline class="st4" points="637.8,894.9 524.3,568.1 709.9,479.2 903.2,658.6 895.5,953.2 405.2,1196.2 638.2,895.4 
					372.4,721.5 281.9,1115.8 				"/>
				<polygon class="st4" points="1147.1,531.3 895.5,953.2 1288.2,1054.4 1374.1,611.1 				"/>
				<polyline class="st4" points="1147.1,531.3 1288.2,1054.4 1513.7,769.1 1522.9,1051.4 1677.9,917.9 1740.8,798.2 				"/>
				<line class="st4" x1="1019.8" y1="1111.2" x2="1147.1" y2="526.7"/>
				<line class="st4" x1="1374.1" y1="611.1" x2="896" y2="956.6"/>
				<polyline class="st4" points="2072.1,1158.7 1644.1,1158.7 1935.2,759.2 				"/>
				<polyline class="st4" points="2167.2,1278.4 1677.9,921 1986.2,974.7 1644.1,1158.7 1522.9,1051.4 1287.8,1051.6 				"/>
			</g>
			
				<use xlink:href="#New_Symbol"  width="18.6" height="18.6" x="-9.3" y="-9.3" transform="matrix(2.2093 0 0 -2.2093 212.3985 48.4244)" style="overflow:visible;"/>
			
				<use xlink:href="#New_Symbol"  width="18.6" height="18.6" x="-9.3" y="-9.3" transform="matrix(1.097 0 0 -1.097 96.7698 236.0041)" style="overflow:visible;"/>
			
				<use xlink:href="#New_Symbol"  width="18.6" height="18.6" x="-9.3" y="-9.3" transform="matrix(1.0615 0 0 -1.0615 204.8699 305.1621)" style="overflow:visible;"/>
			
				<use xlink:href="#New_Symbol"  width="18.6" height="18.6" x="-9.3" y="-9.3" transform="matrix(1.0947 0 0 -1.0947 163.105 404.4435)" style="overflow:visible;"/>
			
				<use xlink:href="#New_Symbol"  width="18.6" height="18.6" x="-9.3" y="-9.3" transform="matrix(1.534 0 0 -1.534 113.2772 1043.3344)" style="overflow:visible;"/>
			
				<use xlink:href="#New_Symbol"  width="18.6" height="18.6" x="-9.3" y="-9.3" transform="matrix(1.6799 0 0 -1.6799 419.6493 431.0945)" style="overflow:visible;"/>
			
				<use xlink:href="#New_Symbol"  width="18.6" height="18.6" x="-9.3" y="-9.3" transform="matrix(1.4425 0 0 -1.4425 710.1116 479.1992)" style="overflow:visible;"/>
			
				<use xlink:href="#New_Symbol"  width="18.6" height="18.6" x="-9.3" y="-9.3" transform="matrix(1.3827 0 0 -1.3827 524.9299 568.2689)" style="overflow:visible;"/>
			
				<use xlink:href="#New_Symbol"  width="18.6" height="18.6" x="-9.3" y="-9.3" transform="matrix(1.4537 0 0 -1.4537 371.7254 721.0939)" style="overflow:visible;"/>
			
				<use xlink:href="#New_Symbol"  width="18.6" height="18.6" x="-9.3" y="-9.3" transform="matrix(1.3652 0 0 -1.3652 635.4011 895.3947)" style="overflow:visible;"/>
			
				<use xlink:href="#New_Symbol"  width="18.6" height="18.6" x="-9.3" y="-9.3" transform="matrix(1.534 0 0 -1.534 895.97 953.8436)" style="overflow:visible;"/>
			
				<use xlink:href="#New_Symbol"  width="18.6" height="18.6" x="-9.3" y="-9.3" transform="matrix(1.994 0 0 -1.994 1146.452 531.6828)" style="overflow:visible;"/>
			
				<use xlink:href="#New_Symbol"  width="18.6" height="18.6" x="-9.3" y="-9.3" transform="matrix(2.6981 0 0 -2.6981 1374.0435 610.7338)" style="overflow:visible;"/>
			
				<use xlink:href="#New_Symbol"  width="18.6" height="18.6" x="-9.3" y="-9.3" transform="matrix(2.0282 0 0 -2.0282 1514.2716 769.47)" style="overflow:visible;"/>
			
				<use xlink:href="#New_Symbol"  width="18.6" height="18.6" x="-9.3" y="-9.3" transform="matrix(1.0868 0 0 -1.0868 1678.3623 921.7274)" style="overflow:visible;"/>
			
				<use xlink:href="#New_Symbol"  width="18.6" height="18.6" x="-9.3" y="-9.3" transform="matrix(1.7258 0 0 -1.7258 1741.3976 798.8906)" style="overflow:visible;"/>
			
				<use xlink:href="#New_Symbol"  width="18.6" height="18.6" x="-9.3" y="-9.3" transform="matrix(2.2426 0 0 -2.2426 1935.2296 756.6037)" style="overflow:visible;"/>
			
				<use xlink:href="#New_Symbol"  width="18.6" height="18.6" x="-9.3" y="-9.3" transform="matrix(1.5264 0 0 -1.5264 902.7361 658.4749)" style="overflow:visible;"/>
			
				<use xlink:href="#New_Symbol"  width="18.6" height="18.6" x="-9.3" y="-9.3" transform="matrix(1.3116 0 0 -1.3116 908.9193 346.4451)" style="overflow:visible;"/>
			
				<use xlink:href="#New_Symbol"  width="18.6" height="18.6" x="-9.3" y="-9.3" transform="matrix(0.9086 0 0 -0.9086 697.6839 227.2732)" style="overflow:visible;"/>
			
				<use xlink:href="#New_Symbol"  width="18.6" height="18.6" x="-9.3" y="-9.3" transform="matrix(0.9501 0 0 -0.9501 616.3312 101.9933)" style="overflow:visible;"/>
			
				<use xlink:href="#New_Symbol"  width="18.6" height="18.6" x="-9.3" y="-9.3" transform="matrix(1.2139 0 0 -1.2139 545.4197 28.2762)" style="overflow:visible;"/>
			
				<use xlink:href="#New_Symbol"  width="18.6" height="18.6" x="-9.3" y="-9.3" transform="matrix(2.1577 0 0 -2.1577 1287.8174 1054.8036)" style="overflow:visible;"/>
			
				<use xlink:href="#New_Symbol"  width="18.6" height="18.6" x="-9.3" y="-9.3" transform="matrix(1.5858 0 0 -1.5858 1522.3357 1051.59)" style="overflow:visible;"/>
		</g>
		<g class="st5">
			<g>
				<polygon class="st4" points="-320.2,90.3 -222.7,-132.1 31,-285.2 298.1,-540.7 539.2,-266.9 943.4,-371.1 1047.7,-297.6 
					1177.7,-162.5 1458.5,-66.6 1802.5,103 2100.5,146.6 2309.8,307.3 2595.6,288.7 2825,191.2 2939.4,446.6 3089,652.2 
					3234.5,776.4 2563.2,754.7 2388.7,651.8 2547.8,454.5 1533.4,317.8 2101.1,711.7 1784.9,845.7 1594.5,681.4 1473.1,1092.3 
					1055.2,1095.5 879.7,1028 655.1,979.9 367,996.9 222.5,1279.3 -95.2,1425.4 -20.3,976.6 -43.8,625.2 -104.2,335.7 				"/>
				<polyline class="st4" points="-320.2,90.3 433.3,-7.7 -222.7,-132.1 348,497.9 -104.2,335.7 433.3,-7.7 591.5,51.5 564.2,182 
					348,497.9 433.3,-7.7 31,-285.2 				"/>
				<line class="st4" x1="222.5" y1="1279.3" x2="-20.3" y2="976.6"/>
				<polygon class="st4" points="885.4,154.6 539.2,-266.9 943.4,-371.1 1047.7,-297.6 564.2,182 885.4,154.6 348,497.9 
					896.4,522.1 1260.2,672.2 1533.4,317.8 1467.5,-57.7 1254.4,151.1 1046.3,297.3 				"/>
				<polyline class="st4" points="1177.7,-162.5 885.4,154.6 896.4,522.1 655.1,979.9 348,497.9 367,996.9 -20.3,976.6 348,497.9 
					-45.6,634.6 				"/>
				<polyline class="st4" points="1263.9,671.5 1046.3,297.3 1253,143.6 1533.4,317.8 1594.5,681.4 1050.3,1097.3 1264.5,672 
					896.4,522.1 879.7,1028 				"/>
				<polygon class="st4" points="1802.5,103 1594.5,681.4 2101.1,711.7 2100.5,146.6 				"/>
				<polyline class="st4" points="1802.5,103 2101.1,711.7 2309.8,307.3 2388.7,651.8 2547,450.7 2595.6,288.7 				"/>
				<line class="st4" x1="1784.9" y1="845.7" x2="1801.4" y2="97.3"/>
				<line class="st4" x1="2100.5" y1="146.6" x2="1595.8" y2="685.5"/>
			</g>
			
				<use xlink:href="#New_Symbol"  width="18.6" height="18.6" x="-9.3" y="-9.3" transform="matrix(1.3475 -0.2626 -0.2626 -1.3475 441.5746 -8.3337)" style="overflow:visible;"/>
			
				<use xlink:href="#New_Symbol"  width="18.6" height="18.6" x="-9.3" y="-9.3" transform="matrix(1.3039 -0.2541 -0.2541 -1.3039 590.9201 50.7381)" style="overflow:visible;"/>
			
				<use xlink:href="#New_Symbol"  width="18.6" height="18.6" x="-9.3" y="-9.3" transform="matrix(1.3447 -0.2621 -0.2621 -1.3447 563.3862 182.6926)" style="overflow:visible;"/>
			
				<use xlink:href="#New_Symbol"  width="18.6" height="18.6" x="-9.3" y="-9.3" transform="matrix(2.8159 -0.5488 -0.5488 -2.8159 347.0603 497.6317)" style="overflow:visible;"/>
			
				<use xlink:href="#New_Symbol"  width="18.6" height="18.6" x="-9.3" y="-9.3" transform="matrix(2.709 -0.528 -0.528 -2.709 -20.901 977.3853)" style="overflow:visible;"/>
			
				<use xlink:href="#New_Symbol"  width="18.6" height="18.6" x="-9.3" y="-9.3" transform="matrix(2.5329 -0.4937 -0.4937 -2.5329 367.1051 995.9115)" style="overflow:visible;"/>
			
				<use xlink:href="#New_Symbol"  width="18.6" height="18.6" x="-9.3" y="-9.3" transform="matrix(1.8844 -0.3673 -0.3673 -1.8844 655.138 979.4236)" style="overflow:visible;"/>
			
				<use xlink:href="#New_Symbol"  width="18.6" height="18.6" x="-9.3" y="-9.3" transform="matrix(1.8844 -0.3673 -0.3673 -1.8844 880.1184 1027.4543)" style="overflow:visible;"/>
			
				<use xlink:href="#New_Symbol"  width="18.6" height="18.6" x="-9.3" y="-9.3" transform="matrix(1.8844 -0.3673 -0.3673 -1.8844 1055.2295 1096.3756)" style="overflow:visible;"/>
			
				<use xlink:href="#New_Symbol"  width="18.6" height="18.6" x="-9.3" y="-9.3" transform="matrix(2.0635 -0.4022 -0.4022 -2.0635 884.901 154.0099)" style="overflow:visible;"/>
			
				<use xlink:href="#New_Symbol"  width="18.6" height="18.6" x="-9.3" y="-9.3" transform="matrix(1.772 -0.3454 -0.3454 -1.772 1253.2164 143.5602)" style="overflow:visible;"/>
			
				<use xlink:href="#New_Symbol"  width="18.6" height="18.6" x="-9.3" y="-9.3" transform="matrix(1.6984 -0.331 -0.331 -1.6984 1047.0673 297.3067)" style="overflow:visible;"/>
			
				<use xlink:href="#New_Symbol"  width="18.6" height="18.6" x="-9.3" y="-9.3" transform="matrix(1.7857 -0.348 -0.348 -1.7857 895.4622 521.7134)" style="overflow:visible;"/>
			
				<use xlink:href="#New_Symbol"  width="18.6" height="18.6" x="-9.3" y="-9.3" transform="matrix(1.6769 -0.3268 -0.3268 -1.6769 1261.0864 672.6937)" style="overflow:visible;"/>
			
				<use xlink:href="#New_Symbol"  width="18.6" height="18.6" x="-9.3" y="-9.3" transform="matrix(1.8844 -0.3673 -0.3673 -1.8844 1595.1578 682.1074)" style="overflow:visible;"/>
			
				<use xlink:href="#New_Symbol"  width="18.6" height="18.6" x="-9.3" y="-9.3" transform="matrix(1.8844 -0.3673 -0.3673 -1.8844 1784.4233 845.537)" style="overflow:visible;"/>
			
				<use xlink:href="#New_Symbol"  width="18.6" height="18.6" x="-9.3" y="-9.3" transform="matrix(2.4494 -0.4774 -0.4774 -2.4494 1801.7742 103.5641)" style="overflow:visible;"/>
			
				<use xlink:href="#New_Symbol"  width="18.6" height="18.6" x="-9.3" y="-9.3" transform="matrix(1.875 -0.3654 -0.3654 -1.875 1532.7539 317.6621)" style="overflow:visible;"/>
			
				<use xlink:href="#New_Symbol"  width="18.6" height="18.6" x="-9.3" y="-9.3" transform="matrix(1.8844 -0.3673 -0.3673 -1.8844 1472.7201 1093.3153)" style="overflow:visible;"/>
		</g>
		<g class="st6">
			<g>
				<polygon class="st4" points="-483.6,314.1 -391.9,181.7 -207.4,114.3 -1.2,-18.1 121,190.7 693.7,437.6 896.1,591.6 
					1084.4,657.7 1200.2,788.8 1388.6,813 1592.2,959.4 1663.5,1112.1 1742.4,1211.4 1308.4,1112.1 1207.9,1023 1336.4,914.8 
					693.7,697.2 1013.2,1025.6 790.4,1072.7 687.3,941.6 556.2,1193.6 283.9,1142.7 178.3,1076.5 38.3,1016.7 -151.4,991.2 
					-281.2,1156.7 -506.5,1211.4 -400.8,928.8 -371.6,697.2 -374.1,501.2 				"/>
				<polyline class="st4" points="-483.6,314.1 19.2,345.9 -391.9,181.7 -100.5,664.1 -374.1,501.2 19.2,345.9 114.6,404.5 
					80.3,485.9 -100.5,664.1 19.2,345.9 -207.4,114.3 				"/>
				<line class="st4" x1="121" y1="190.7" x2="19.2" y2="345.9"/>
				<polygon class="st4" points="292.8,508.8 121,190.7 80.3,485.9 292.8,508.8 -100.5,664.1 253.3,749.4 471,893.2 693.7,697.2 
					698.4,444.6 533.3,553.4 379.3,622.1 				"/>
				<polyline class="st4" points="-373.9,703.1 -100.5,664.1 -400.8,928.8 -151.4,991.2 -100.5,664.1 38.3,1016.7 253.3,749.4 
					292.8,508.8 				"/>
				<polyline class="st4" points="473.5,893.2 379.3,622.1 533.3,548.3 693.7,697.2 687.3,941.6 280.5,1143.2 473.8,893.6 
					253.3,749.4 178.3,1076.5 				"/>
				<polygon class="st4" points="896.1,591.6 687.3,941.6 1013.2,1025.6 1084.4,657.7 				"/>
				<polyline class="st4" points="896.1,591.6 1013.2,1025.6 1200.2,788.8 1207.9,1023 1336.4,912.3 1388.6,813 				"/>
				<line class="st4" x1="790.4" y1="1072.7" x2="896.1" y2="587.7"/>
				<line class="st4" x1="1084.4" y1="657.7" x2="687.7" y2="944.4"/>
				<polyline class="st4" points="1742.4,1211.4 1336.4,914.8 1592.2,959.4 1308.4,1112.1 1207.9,1023 1012.8,1023.2 				"/>
			</g>
			
				<use xlink:href="#New_Symbol"  width="18.6" height="18.6" x="-9.3" y="-9.3" transform="matrix(2.1162 0 0 -2.1162 120.5602 190.9166)" style="overflow:visible;"/>
			
				<use xlink:href="#New_Symbol"  width="18.6" height="18.6" x="-9.3" y="-9.3" transform="matrix(0.9101 0 0 -0.9101 24.6266 346.5457)" style="overflow:visible;"/>
			
				<use xlink:href="#New_Symbol"  width="18.6" height="18.6" x="-9.3" y="-9.3" transform="matrix(0.8807 0 0 -0.8807 114.3139 403.924)" style="overflow:visible;"/>
			
				<use xlink:href="#New_Symbol"  width="18.6" height="18.6" x="-9.3" y="-9.3" transform="matrix(0.9082 0 0 -0.9082 79.6629 486.2947)" style="overflow:visible;"/>
			
				<use xlink:href="#New_Symbol"  width="18.6" height="18.6" x="-9.3" y="-9.3" transform="matrix(1.2727 0 0 -1.2727 38.3223 1016.3627)" style="overflow:visible;"/>
			
				<use xlink:href="#New_Symbol"  width="18.6" height="18.6" x="-9.3" y="-9.3" transform="matrix(1.2727 0 0 -1.2727 178.6254 1076.1487)" style="overflow:visible;"/>
			
				<use xlink:href="#New_Symbol"  width="18.6" height="18.6" x="-9.3" y="-9.3" transform="matrix(1.3937 0 0 -1.3937 292.5097 508.4062)" style="overflow:visible;"/>
			
				<use xlink:href="#New_Symbol"  width="18.6" height="18.6" x="-9.3" y="-9.3" transform="matrix(1.1968 0 0 -1.1968 533.4973 548.3172)" style="overflow:visible;"/>
			
				<use xlink:href="#New_Symbol"  width="18.6" height="18.6" x="-9.3" y="-9.3" transform="matrix(1.1472 0 0 -1.1472 379.8578 622.2155)" style="overflow:visible;"/>
			
				<use xlink:href="#New_Symbol"  width="18.6" height="18.6" x="-9.3" y="-9.3" transform="matrix(1.2061 0 0 -1.2061 252.7488 749.0098)" style="overflow:visible;"/>
			
				<use xlink:href="#New_Symbol"  width="18.6" height="18.6" x="-9.3" y="-9.3" transform="matrix(1.1326 0 0 -1.1326 471.5123 893.6217)" style="overflow:visible;"/>
			
				<use xlink:href="#New_Symbol"  width="18.6" height="18.6" x="-9.3" y="-9.3" transform="matrix(1.2727 0 0 -1.2727 687.6982 942.1149)" style="overflow:visible;"/>
			
				<use xlink:href="#New_Symbol"  width="18.6" height="18.6" x="-9.3" y="-9.3" transform="matrix(1.2727 0 0 -1.2727 790.1266 1072.4614)" style="overflow:visible;"/>
			
				<use xlink:href="#New_Symbol"  width="18.6" height="18.6" id="XMLID_1_" x="-9.3" y="-9.3" transform="matrix(1.8982 0 0 -1.8982 895.5155 591.8612)" style="overflow:visible;"/>
			
				<use xlink:href="#New_Symbol"  width="18.6" height="18.6" x="-9.3" y="-9.3" transform="matrix(1.4448 0 0 -1.4448 1084.3411 657.4474)" style="overflow:visible;"/>
			
				<use xlink:href="#New_Symbol"  width="18.6" height="18.6" x="-9.3" y="-9.3" transform="matrix(1.6828 0 0 -1.6828 1200.684 789.1459)" style="overflow:visible;"/>
			
				<use xlink:href="#New_Symbol"  width="18.6" height="18.6" x="-9.3" y="-9.3" transform="matrix(0.9017 0 0 -0.9017 1336.825 915.4692)" style="overflow:visible;"/>
			
				<use xlink:href="#New_Symbol"  width="18.6" height="18.6" x="-9.3" y="-9.3" transform="matrix(1.4318 0 0 -1.4318 1389.1233 813.5552)" style="overflow:visible;"/>
			
				<use xlink:href="#New_Symbol"  width="18.6" height="18.6" x="-9.3" y="-9.3" transform="matrix(1.2583 0 0 -1.2583 1592.2268 959.2139)" style="overflow:visible;"/>
			
				<use xlink:href="#New_Symbol"  width="18.6" height="18.6" x="-9.3" y="-9.3" transform="matrix(1.2664 0 0 -1.2664 693.3119 697.0566)" style="overflow:visible;"/>
			
				<use xlink:href="#New_Symbol"  width="18.6" height="18.6" id="XMLID_2_" x="-9.3" y="-9.3" transform="matrix(1.0882 0 0 -1.0882 698.4418 438.1752)" style="overflow:visible;"/>
			
				<use xlink:href="#New_Symbol"  width="18.6" height="18.6" x="-9.3" y="-9.3" transform="matrix(1.7902 0 0 -1.7902 1012.8019 1025.8783)" style="overflow:visible;"/>
			
				<use xlink:href="#New_Symbol"  width="18.6" height="18.6" x="-9.3" y="-9.3" transform="matrix(1.3157 0 0 -1.3157 1207.3745 1023.212)" style="overflow:visible;"/>
		</g>
	</g>
</g>
</svg>
